<svg width="32" height="32" viewBox="0 0 32 32" fill="none" xmlns="http://www.w3.org/2000/svg">
<g clip-path="url(#clip0_16132_10505)">
<path d="M16 28C22.6274 28 28 22.6274 28 16C28 9.37258 22.6274 4 16 4C9.37258 4 4 9.37258 4 16C4 22.6274 9.37258 28 16 28Z" stroke="#2E3A49" stroke-linecap="round" stroke-linejoin="round"/>
<path d="M16 20C18.7614 20 21 17.7614 21 15C21 12.2386 18.7614 10 16 10C13.2386 10 11 12.2386 11 15C11 17.7614 13.2386 20 16 20Z" stroke="#2E3A49" stroke-linecap="round" stroke-linejoin="round"/>
<path d="M7.97656 24.9214C8.72895 23.4394 9.87701 22.1947 11.2935 21.3253C12.71 20.4558 14.3395 19.9956 16.0016 19.9956C17.6636 19.9956 19.2932 20.4558 20.7096 21.3253C22.1261 22.1947 23.2742 23.4394 24.0266 24.9214" stroke="#2E3A49" stroke-linecap="round" stroke-linejoin="round"/>
</g>
<defs>
<clipPath id="clip0_16132_10505">
<rect width="32" height="32" fill="white"/>
</clipPath>
</defs>
</svg>
