<svg width="21" height="13" viewBox="0 0 21 13" fill="none" xmlns="http://www.w3.org/2000/svg">
<path d="M6.66406 8.15039C8.73513 8.15039 10.4141 6.47146 10.4141 4.40039C10.4141 2.32932 8.73513 0.650391 6.66406 0.650391C4.59299 0.650391 2.91406 2.32932 2.91406 4.40039C2.91406 6.47146 4.59299 8.15039 6.66406 8.15039Z" stroke="#141414" stroke-width="1.3" stroke-linecap="round" stroke-linejoin="round"/>
<path d="M0.648438 11.8408C1.21273 10.7293 2.07377 9.79581 3.13613 9.14373C4.19849 8.49165 5.42067 8.14648 6.66719 8.14648C7.91371 8.14648 9.13588 8.49165 10.1982 9.14373C11.2606 9.79581 12.1216 10.7293 12.6859 11.8408" stroke="#141414" stroke-width="1.3" stroke-linecap="round" stroke-linejoin="round"/>
<path d="M14.1768 8.15039C16.2478 8.15039 17.9268 6.47146 17.9268 4.40039C17.9268 2.32932 16.2478 0.650391 14.1768 0.650391C13.4949 0.650391 12.8556 0.832363 12.3047 1.15039" stroke="#141414" stroke-width="1.3" stroke-linecap="round" stroke-linejoin="round"/>
<path d="M20.195 11.8408C19.6307 10.7293 18.7697 9.79581 17.7073 9.14373C16.645 8.49165 15.4228 8.14648 14.1763 8.14648C13.4769 8.14648 12.7851 8.25515 12.125 8.46572" stroke="#141414" stroke-width="1.3" stroke-linecap="round" stroke-linejoin="round"/>
</svg>
